<svg width="128" height="128" viewBox="0 0 128 128" fill="none" xmlns="http://www.w3.org/2000/svg">
<g clip-path="url(#clip0_5_2)">
<path d="M44.44 100.63C40.21 97.3 35.7 94.11 32.61 89.62C26.12 81.7 21.12 72.52 17.71 62.88C15.64 56.61 14.94 49.89 12.27 43.86C9.49 39.48 12.75 34.7 17.54 33.31C19.67 32.9 23.43 30.88 18.9 32.33C14.84 35.31 14.45 29.62 18.61 29.26C21.45 28.88 22.5 26.56 21.53 24.46C18.48 22.47 28.93 20.28 23.67 17.31C18.19 11.4 31.33 10.26 28.09 16.98C27.32 22.14 37.27 16.03 34.96 21.99C37.31 24.85 43.76 22.64 43.59 26.66C47.01 26.9 48.19 29.77 51.39 29.99C54.72 31.49 60.75 32.68 61.88 36.43C58.58 39.04 50.93 31.03 50.57 38.27C51.57 48.96 51.31 59.97 55.22 70.15C57.07 76.31 61.55 81.16 65.6 85.96C69.48 90.66 74.72 93.97 80.08 96.76C84.77 98.97 89.83 100.44 94.95 101.36C97.02 99.77 100.69 93.88 103.92 96.36C104.08 99.16 97.5 102.2 103.61 101.9C107.2 100.82 109.69 104.67 112.65 101.19C115.37 104.42 123.97 99.13 122.03 105.72C119.41 107.41 115.59 106.39 112.96 108.72C108.63 106.56 105.19 110.65 100.4 110.14C95.08 111.09 89.67 111.48 84.27 111.48C75.42 110.78 66.38 110.49 57.97 107.41C53.23 106.03 48.6 103.33 44.44 100.63ZM51.91 103.87C56.54 105.87 61.07 107.98 66.14 108.62C74.19 109.74 82.51 111.46 90.59 109.89C86.93 108.24 83.15 110.53 79.51 108.71C75.14 109.65 70.45 108.47 66.01 107.89C60.96 105.64 55.51 104.09 50.78 101.17C44.87 99.01 53.84 103.94 55.43 104.34C59.12 106.44 51.37 103.26 50.27 102.39C47.18 100.65 46.78 101.02 49.96 102.78C50.6 103.15 51.24 103.55 51.91 103.87ZM43.1 97.64C47.59 99.3 43.08 94.48 41.03 94.76C40.12 93.18 37.55 92.18 39.36 91.33C36.1 92.46 35.94 87.03 34.41 87.8C30.96 86.71 33.07 82.85 28.96 80.48C28.59 77.98 24.88 75.82 23.7 72.05C23.18 70.12 19.51 64.59 21.76 69.74C23.68 74.7 27.05 78.95 29.86 83.19C32.04 87.23 34.62 91.45 38.58 93.97C39.92 95.27 41.21 97.24 43.1 97.64ZM30.17 83.45C30.99 84.91 30.33 82.77 30.17 83.45ZM48.47 99.63C49.47 99.19 47.04 99.07 48.47 99.63ZM50.91 100.52C50.66 99.29 49.8 101.21 50.91 100.52ZM53.96 101.79C55.41 100.41 51.72 100.92 53.96 101.79ZM59.18 104.7C60.07 103.4 56.36 104.21 59.18 104.7ZM49.15 97.71C51.4 96.25 46.24 97.69 49.15 97.71ZM51.44 98.85C51.37 98.08 50.62 99.19 51.44 98.85ZM62.87 105.98C64.71 107.14 73.6 108.52 68.03 106.46C67.1 106.66 57.7 103.8 62.87 105.98ZM44.72 91.85C44.54 91.08 41.87 91 44.72 91.85ZM50.04 94.95C51.43 93.99 47.17 94.21 50.04 94.95ZM54.52 97.7C56.5 96.95 51.29 96.95 54.52 97.7ZM42.55 89.49C44.71 91.14 51.25 89.7 45.85 88.5C43.4 87.19 37.86 86.3 41.63 89.29L42.55 89.49ZM57.55 98.65C58.45 97.12 53.78 97.77 57.55 98.65ZM52.99 95.02C58.26 96.51 48.56 91.68 51.69 94.47L52.39 94.79L52.99 95.02ZM62.13 100.3C67.12 100.35 57.62 99.62 62.13 100.3ZM40.63 86.6C40.44 85.67 39.4 86.68 40.63 86.6ZM70.57 105.04C70.71 103.36 68.95 106.29 70.57 105.04ZM49.15 91.82C48.85 90.94 47.59 91.78 49.15 91.82ZM41.11 86.02C43.97 85.85 37.18 84.76 41.11 86.02ZM31.57 79.86C31.21 78.48 28.45 77.39 31.57 79.86ZM56.6 95.74C56.35 95.87 56.08 95.14 56.6 95.74ZM72.18 105.3C72.13 104.39 71.33 105.65 72.18 105.3ZM55.22 94.32C55.5 93.14 52.78 93.96 55.22 94.32ZM43.62 86.96C45.75 86.73 40.2 85.52 43.62 86.96ZM63.25 99.16C66.57 97.84 60.01 98.52 63.25 99.16ZM53.04 92.23C56.87 92.72 48.48 89.62 52.2 91.95L53.04 92.23ZM66.35 100.42C69.93 98.28 68.75 105.43 72.42 101.02C76.04 98.38 69.29 104.29 73.75 101.49C76.98 99.33 81.74 102.51 84.75 103.55C86.91 103.44 89.02 105.42 91.24 104.22C95.51 103.07 82.88 102.51 86.19 100.47C82.28 101.61 79.39 99.11 77.47 96.61C73.08 95.6 68.01 93.36 65.82 89.47C64.93 88.01 67.11 89.68 65.05 87.29C62.41 84.94 61.09 82.27 59.32 79.41C57.2 78.28 56.95 74.95 56.74 79.3C56.76 76.56 54.18 74.71 53.55 75.48C53.54 72.84 56.31 74.16 54.37 72.21C53.95 69.47 52.58 66.62 52.17 63.53C51.53 62.04 52.08 58.85 49.98 62.22C49.22 65.79 49.73 57.84 50.92 60.46C52.48 57.79 50.36 58.1 50.27 58.47C51.29 56.21 50.91 53.01 50 54.23C50.54 51.84 50.86 45.43 49.19 46.57C50.2 44.07 51.11 35.13 46.72 38.54C44.94 38.57 41.87 39.18 40.41 39.91C44.97 42.42 39.95 40.82 38.09 40.42C37.85 42.75 36.01 41.74 33.71 41.76C37.38 42.21 31.92 45.51 29.82 44.23C27.08 45.54 32.18 48.8 29.87 49.81C30.15 51.33 25.68 49.26 26.03 52.77C23.38 51.65 25.67 56.93 26.99 55.15C31.5 56.37 30.17 59.16 30.28 61.8C29.54 63.34 26.65 58.18 29.64 58.42C27.28 54.59 27.03 57.04 25.08 58.81C24.63 58.94 30.07 61.34 26.65 62.53C29.66 63 29.75 65.63 30.36 67.29C32.17 69.17 31.8 65.21 33.96 67.47C32.59 65.45 26.71 61.79 31.44 62.96C31.41 60.93 30.58 59.29 32.04 59.33C33.48 56.73 30.53 65.75 33.77 62.44C34.67 62.05 34.89 59.84 36.5 62.65C38.84 64.95 37.35 66.62 34.04 64.51C34.63 66.52 38.46 67.23 37.74 70.37C38.5 73.13 39.57 72.11 40.5 71.95C41.23 74.63 41.64 72.66 41.68 71.38C45.02 72.1 44.24 74.07 45.28 75.45C47.58 76.49 41.99 68.41 45.94 73.02C50.1 76.77 47.5 78.34 43.77 77.74C46.13 77.55 46.89 80.93 49.84 80.81C52.53 82.09 54.36 87.01 49.72 84.96C48.11 83.51 42.41 81.72 47.07 84.48C51.37 86.47 54.78 87.66 58.93 90.16C61.89 92.28 63.18 94.7 64.3 95.18C61.81 96.37 56.79 94.23 60.52 93.57C58.19 93.15 55.58 91.97 57.81 94.87C59.7 96.45 64.52 96.29 65.39 96.46C64.66 98.07 63.4 98.2 65.42 98.32C63.17 99.54 66.14 99.73 66.35 100.42ZM61.75 87.42C60.38 85.99 60.03 83.31 61.51 85.64C62.26 85.94 63.94 90.02 61.75 87.42ZM76.74 96.94C77.59 96.88 76.76 97.59 76.74 96.94ZM59.59 83.91C60.08 85.58 59.53 81.74 59.59 83.91ZM58.1 81.9C60.27 82.85 56.37 78.58 58.1 81.9ZM40.04 69.44C41.05 69.17 40.54 71.17 40.04 69.44ZM54.41 77.23C55.14 79.19 55.03 74.9 54.41 77.23ZM44.26 70.17C45.76 71.38 43.55 68.88 44.26 70.17ZM52.97 72.96C51.34 69.31 54.13 70.96 53.33 73.56L52.97 72.96ZM37.95 62.95C37.22 61.75 36.02 58.23 36.4 57.16C36.75 58.91 40.12 64.69 38.05 59.55C35.77 55.25 40.78 60.95 41.3 62.02C41.54 63.09 39.89 61.73 41.01 64.23C38.97 61.38 39.81 65.81 37.95 62.95ZM33.31 59.75C34.37 61.66 33.5 56.96 33.31 59.75ZM35.39 60.47C37.08 63.4 36.39 58.36 35.39 60.47ZM30.37 56.58C28.64 54.86 27.39 53.28 30.45 55.51C31.63 55.56 27.83 51.91 30.73 54.35C33.79 54.91 32.24 59.36 30.37 56.58ZM33.01 56.51C34.01 55.52 33.54 57.49 33.01 56.51ZM34.63 57.03C36.48 58.23 33.11 54.18 34.63 57.03ZM31.41 53.95C26.39 49.48 37.72 56.29 32.23 54.78L31.41 53.95ZM45.8 62.31C43.62 61.01 45.22 53.13 45.96 58.52C48.07 57.84 45.84 61.3 47.42 61.27C47.18 63.45 46.47 64.24 45.8 62.31ZM51.13 65.46C51.58 67.08 51.34 63.08 51.13 65.46ZM50.2 64.54C50.44 63.53 50.23 65.74 50.2 64.54ZM32.39 52.48C29.16 48.03 41.77 56.99 34.46 53.61C33.69 53.4 32.77 53.33 32.39 52.48ZM42.65 57.91C43.33 58.53 42.34 54.16 42.65 57.91ZM50.43 62.91C51.03 60.77 50.48 64.32 50.43 62.91ZM32.89 50.78C34.81 50.37 40.84 54.15 35.3 51.86C34.68 51.17 33.37 51.48 32.89 50.78ZM49.36 58.99C49.56 55.15 50.51 56.7 49.37 59.54L49.36 58.99ZM34.31 49.44C35.09 48.29 32.23 44.26 34.72 47.99C35.8 48.84 37.83 49.42 36.03 49.78C38.87 52.28 35.35 50.46 34.31 49.44ZM48.55 57.79C49.09 53.42 49.02 60.35 48.55 57.79ZM32.68 45.41C33.28 45.15 33 46.2 32.68 45.41ZM36.39 47.62C38.16 49.85 37.35 45.61 36.39 47.62ZM46.86 53.44C47.06 54.56 46.86 52.67 46.86 53.44ZM46.26 52.1C47.61 54 44.81 48.51 46.26 52.1ZM45.37 49.75C46.2 51.61 45.12 48.27 45.37 49.75ZM46.82 47.39C45.82 45.63 48.08 39.64 48.33 43.36C47.28 46.25 48.03 47.87 48.76 43.99C50.12 40.93 48.47 50.01 46.82 47.39ZM48.31 38.48C48.75 37.95 48.41 39.13 48.31 38.48ZM45.82 87.6C45.89 87.93 45.23 87.08 45.82 87.6ZM50.95 90.2C53.81 90.94 53.79 89.76 51.21 89.41C49.82 88.12 45.44 86.75 49.36 89.25C49.63 89.9 50.45 89.88 50.95 90.2ZM40.81 83.46C42.38 84.64 46.74 86.78 43.05 83.91C44.29 82.47 40.67 81.7 41.87 80.73C38.81 78.86 39.46 79.03 41.6 79.09C37.93 77.45 42.13 77.57 41.93 76.73C40.51 76.45 34.9 74.23 38.2 76.91C34.84 75.2 37.4 77.55 36.38 77.3C32.94 76.36 39.44 79.92 35.84 79.03C37.81 80.59 41.14 83.03 36.67 80.68C36.1 81.53 39.88 82.82 40.81 83.46ZM46.18 86.55C52.71 88.65 42.98 83.97 46.18 86.55ZM73.68 103.2C73.76 101.9 72.78 104.31 73.68 103.2ZM76.5 104.39C78.01 102.93 76.56 106.72 79 104.03C79.03 102.11 78.93 100.97 76.2 103.31C75.45 103.73 75.11 105.5 76.5 104.39ZM31.65 76.22C31.18 74.4 28.4 74.41 31.65 76.22ZM34.66 78.2C33.54 76.34 30.66 76.52 34.66 78.2ZM51.83 88.55C53.51 90.04 59.53 89.64 53.86 88.73C53.03 87.49 48.54 87.79 51.83 88.55ZM75.43 103.12C78 100.96 72.93 104.09 75.43 103.12ZM80.79 106.81C80.81 106.12 79.68 107.11 80.79 106.81ZM80.8 105.84C83.66 102.81 78.03 106.02 80.8 105.84ZM24.22 70.01C21.79 66.54 22.71 64.98 20.36 62.14C19.91 59.97 16.33 55.05 18.51 60.26C20.5 63.31 21.09 68.03 24.22 70.01ZM79.9 104.88C85.16 101.48 77.75 103.4 79.9 104.88ZM83.91 106.45C86.55 104.19 82.25 105.98 83.91 106.45ZM30.75 72.38C31.51 71.26 28.81 72.24 30.75 72.38ZM83.08 105.37C85.63 103.73 82.49 103.98 82.62 105.52L83.08 105.37ZM48.5 83.58C48.41 82.47 47.15 83.67 48.5 83.58ZM50.64 84.81C49.95 83.43 49.59 85.02 50.64 84.81ZM87.17 106.48C90.44 104.12 85.19 106.03 86.49 106.93L87.17 106.48ZM85.91 105.88C88.58 103.65 83.11 106.87 85.91 105.88ZM92.3 110.13C94.09 108.94 90.13 109.75 92.3 110.13ZM32.39 71.57C34.78 72.11 41.95 77.46 37.72 71.94C35.55 71.3 36.85 66 34.64 66.94C36.12 69.42 35.86 70.47 32.74 68.91C28.83 67 30.54 69.85 31.31 70.64C30.27 70.89 32.7 71.55 32.39 71.57ZM21.49 62.96C21.92 61.19 17.54 53.21 19.42 58.96C20.1 60.17 20.03 62.45 21.49 62.96ZM41.5 75.3C41.44 75.15 40.27 74.27 41.5 75.3ZM44.53 76.01C44.53 74.13 41.18 75.24 44.53 76.01ZM70.83 92.58C70.33 91.3 68.85 92.56 70.83 92.58ZM72.09 93.51C71.91 92.79 71.37 93.65 72.09 93.51ZM82.52 100.07C83.52 99.33 81.27 99.98 82.52 100.07ZM26.93 64.35C29.8 63.24 23.86 63.56 26.93 64.35ZM68.52 90.55C68.48 88.69 66.69 91.01 68.52 90.55ZM25.8 61.71C27.64 61.09 24.09 61.3 25.8 61.71ZM31.14 64.3C31.11 63.69 30.58 64.53 31.14 64.3ZM96.36 104.29C98.73 103.81 104.13 105.5 105 103.66C102.12 103.59 95.05 101.63 94.72 104.12L95.35 104.22L96.36 104.29ZM32.84 64.73C32.89 62.85 31.38 64.66 32.84 64.73ZM18.79 54.98C18.15 51.4 16.36 54.44 18.79 54.98ZM22.14 55.82C22.18 54.67 19.07 54.79 22.14 55.82ZM24.05 56.76C23.62 57.33 23.5 56.32 24.05 56.76ZM36.11 64.49C36.68 63.97 34.76 64.11 36.11 64.49ZM22.78 54.64C22.45 51.93 18.9 54.24 22.78 54.64ZM15.91 50.18C15.81 48.93 15.24 50.65 15.91 50.18ZM16.93 49.41C16.76 47.93 16.05 49.6 16.93 49.41ZM22.58 52.78C24.97 51.84 18.23 50.84 22.09 52.6L22.58 52.78ZM98.17 99.47C99.7 98.07 96.23 99.04 98.17 99.47ZM107.3 104.21C107.91 102.4 105.76 104.44 107.3 104.21ZM23.15 49.82C23.41 48.07 21.26 50.17 23.15 49.82ZM15.12 44.44C14.69 41.97 14.75 37.62 18.88 39.09C13.37 40.19 22.7 45.94 21.52 41.4C23.84 41.51 26.05 40.03 24.84 42.28C29.41 41.78 32.57 37.82 36.98 38.37C40.42 37.91 44.17 37.57 47.87 36.19C50.91 35.97 53.84 32.69 52.18 30.75C48.03 30.4 43.68 30.92 39.1 31.83C34.02 32.89 29.4 34.89 24.27 35.76C19.27 36.43 25.27 37.61 23.84 37.87C21.23 38.77 26.95 39.39 23.5 40.34C21.37 39.93 19.15 39.2 20.06 36.96C15.27 37.58 11.06 39.57 14.85 44.44H15.12ZM26.66 38.56C27.78 34.42 32.67 41.96 28.5 39.11C28 38.73 27.18 38.43 26.66 38.56ZM26.88 36.55C28.5 35.35 27.74 37.23 26.88 36.55ZM28.94 36.59C29.09 34.69 33.65 37.6 29.69 37.27L28.94 36.59ZM31.75 35.45C32.78 34.25 32.05 36.52 31.75 35.45ZM32.47 34.97C34.18 32.91 42.16 33.66 36.32 34.77C34.76 33.59 33.56 35.47 32.47 34.97ZM42.89 33.37C48.07 35.36 42.63 27.75 42.89 33.37ZM45.85 33.35C46.93 30.52 50.05 32.21 46.35 32.78C46.43 33.08 46.24 34.24 45.85 33.35ZM21.99 48.37C25.22 46.39 18.56 46.65 21.99 48.37ZM24.38 49.03C25.51 47.83 21.92 48.54 24.38 49.03ZM17.34 44.04C19.19 42.62 15.16 43.5 17.34 44.04ZM112.69 103.69C112.74 102.04 111.28 104.43 112.69 103.69ZM103 97.08C103.28 95.18 101.76 97.24 103 97.08ZM115.36 104.33C117.94 104.34 123.18 103.53 117.56 103.53C116.68 103.66 112.43 103.64 115.36 104.33ZM26.48 47.87C28.57 47.73 29.75 45.57 26.07 45.69C20.38 45.1 31.09 47.64 25.34 46.91C24.57 47.42 26.43 48.01 26.48 47.87ZM28.32 48.8C28.1 47.46 27.67 49.51 28.32 48.8ZM30.5 42.98C31.4 41.86 29.24 42.68 30.5 42.98ZM23.55 31.38C27.28 30.11 32.37 28.69 34.13 32C32.34 29.85 33.41 27.72 35.1 30.88C37.49 34.07 38.69 29.43 37.13 28.36C38.9 30.56 40.92 31.6 38.32 28.5C41.15 25.1 32.66 28.95 30.73 28.91C29.81 29.32 21.15 31.11 23.55 31.38ZM25.74 27.2C27.87 25.6 33.09 28.16 29.74 25.61C29.41 25.31 22.39 27.54 25.74 27.2ZM33.49 27.52C35.98 27.58 32.42 24.18 35.38 25.72C34.89 24.13 31.93 23.83 30.48 23.2C29.66 24.65 32.14 27.54 33.49 27.52ZM27.1 20.48C27.96 19.32 25.59 21.08 27.1 20.48ZM30.26 21.24C34.27 20.71 29.24 19.52 29.45 21.2L30.26 21.24ZM24.35 16.62C21.53 12.93 29.66 17.24 26.79 13.38C24.38 11.46 22.06 15.54 24.35 16.62ZM60.56 36.12C61.85 33.83 55.22 33.03 59.69 35.31C60.11 35.45 60.01 36.28 60.56 36.12Z" fill="white"/>
</g>
<defs>
<clipPath id="clip0_5_2">
<rect width="128" height="128" fill="white"/>
</clipPath>
</defs>
</svg>
